<svg xmlns="http://www.w3.org/2000/svg" viewBox="0 0 1060 980" font-family="'Courier New', monospace">
  <defs>
    <marker id="arr" markerWidth="8" markerHeight="6" refX="8" refY="3" orient="auto">
      <polygon points="0 0,8 3,0 6" fill="#555"/>
    </marker>
    <marker id="arr-r" markerWidth="8" markerHeight="6" refX="8" refY="3" orient="auto">
      <polygon points="0 0,8 3,0 6" fill="#c0392b"/>
    </marker>
    <marker id="arr-g" markerWidth="8" markerHeight="6" refX="8" refY="3" orient="auto">
      <polygon points="0 0,8 3,0 6" fill="#27ae60"/>
    </marker>
    <marker id="arr-b" markerWidth="8" markerHeight="6" refX="8" refY="3" orient="auto">
      <polygon points="0 0,8 3,0 6" fill="#2980b9"/>
    </marker>
    <marker id="arr-p" markerWidth="8" markerHeight="6" refX="8" refY="3" orient="auto">
      <polygon points="0 0,8 3,0 6" fill="#8e44ad"/>
    </marker>
  </defs>

  <rect width="1060" height="980" fill="#1a1a2e"/>

  <!-- Title -->
  <text x="530" y="34" text-anchor="middle" font-size="18" font-weight="bold" fill="#ecf0f1">JVM → 网卡：每一次数据移动完整罗列</text>
  <text x="530" y="52" text-anchor="middle" font-size="11" fill="#95a5a6">以 channel.write(buf) 发送数据为例，区分 CPU拷贝 / DMA拷贝 / 内核内移动</text>

  <!-- ===== 图例 ===== -->
  <rect x="20" y="62" width="1020" height="32" rx="4" fill="#2c3e50"/>
  <rect x="30" y="71" width="14" height="14" rx="2" fill="#e74c3c"/>
  <text x="50" y="82" font-size="10" fill="#ecf0f1">CPU 拷贝（占用CPU，最贵）</text>
  <rect x="210" y="71" width="14" height="14" rx="2" fill="#2980b9"/>
  <text x="230" y="82" font-size="10" fill="#ecf0f1">DMA 拷贝（硬件完成，不占CPU）</text>
  <rect x="430" y="71" width="14" height="14" rx="2" fill="#8e44ad"/>
  <text x="450" y="82" font-size="10" fill="#ecf0f1">内核内部移动（描述符/引用，近似零开销）</text>
  <rect x="700" y="71" width="14" height="14" rx="2" fill="#27ae60"/>
  <text x="720" y="82" font-size="10" fill="#ecf0f1">该步骤被省略（零拷贝路径）</text>
  <rect x="880" y="71" width="14" height="14" rx="2" fill="#e67e22"/>
  <text x="900" y="82" font-size="10" fill="#ecf0f1">JVM 内部（用户态）</text>

  <!-- ======================================================
       CASE 1: HeapByteBuffer → Socket
       ====================================================== -->
  <rect x="20" y="104" width="1020" height="188" rx="6" fill="#1e1e3a" stroke="#e74c3c" stroke-width="1.5"/>
  <text x="30" y="121" font-size="13" font-weight="bold" fill="#e74c3c">场景 A：HeapByteBuffer → channel.write()  【最差，3次拷贝】</text>

  <!-- nodes -->
  <!-- Node 1: JVM Heap -->
  <rect x="30" y="132" width="160" height="56" rx="5" fill="#e67e22"/>
  <text x="110" y="151" text-anchor="middle" font-size="11" fill="white" font-weight="bold">① JVM Heap</text>
  <text x="110" y="165" text-anchor="middle" font-size="9" fill="#fdebd0">HeapByteBuffer</text>
  <text x="110" y="179" text-anchor="middle" font-size="9" fill="#fdebd0">byte[] 底层数组</text>

  <!-- arrow 1: JVM heap -> temp direct -->
  <line x1="192" y1="160" x2="238" y2="160" stroke="#e74c3c" stroke-width="2.5" marker-end="url(#arr-r)"/>
  <text x="215" y="152" text-anchor="middle" font-size="9" fill="#e74c3c" font-weight="bold">CPU拷贝①</text>
  <text x="215" y="173" text-anchor="middle" font-size="8" fill="#95a5a6">JVM内部</text>
  <text x="215" y="183" text-anchor="middle" font-size="8" fill="#95a5a6">memcpy</text>

  <!-- Node 2: Temp DirectBuffer -->
  <rect x="240" y="132" width="160" height="56" rx="5" fill="#e67e22" stroke="#f39c12" stroke-width="1.5"/>
  <text x="320" y="151" text-anchor="middle" font-size="11" fill="white" font-weight="bold">② 临时堆外buf</text>
  <text x="320" y="165" text-anchor="middle" font-size="9" fill="#fdebd0">ThreadLocal缓存</text>
  <text x="320" y="179" text-anchor="middle" font-size="9" fill="#fdebd0">地址稳定，GC不动</text>

  <!-- arrow 2: temp direct -> kernel sk_buff (syscall boundary) -->
  <line x1="402" y1="160" x2="448" y2="160" stroke="#e74c3c" stroke-width="2.5" marker-end="url(#arr-r)"/>
  <text x="425" y="152" text-anchor="middle" font-size="9" fill="#e74c3c" font-weight="bold">CPU拷贝②</text>
  <text x="425" y="173" text-anchor="middle" font-size="8" fill="#95a5a6">copy_from</text>
  <text x="425" y="183" text-anchor="middle" font-size="8" fill="#95a5a6">_user()</text>

  <!-- syscall boundary line -->
  <line x1="445" y1="104" x2="445" y2="292" stroke="#7f8c8d" stroke-width="1" stroke-dasharray="4,3"/>
  <text x="447" y="115" font-size="8" fill="#7f8c8d">syscall边界</text>

  <!-- Node 3: kernel sk_buff -->
  <rect x="450" y="132" width="160" height="56" rx="5" fill="#1a5276"/>
  <text x="530" y="151" text-anchor="middle" font-size="11" fill="white" font-weight="bold">③ 内核 sk_buff</text>
  <text x="530" y="165" text-anchor="middle" font-size="9" fill="#aed6f1">TCP/IP 封装</text>
  <text x="530" y="179" text-anchor="middle" font-size="9" fill="#aed6f1">各层加协议头</text>

  <!-- arrow 3: sk_buff -> TX Ring (内核内部，引用传递) -->
  <line x1="612" y1="160" x2="658" y2="160" stroke="#8e44ad" stroke-width="2" marker-end="url(#arr-p)"/>
  <text x="635" y="152" text-anchor="middle" font-size="9" fill="#8e44ad" font-weight="bold">描述符</text>
  <text x="635" y="173" text-anchor="middle" font-size="8" fill="#95a5a6">物理地址写</text>
  <text x="635" y="183" text-anchor="middle" font-size="8" fill="#95a5a6">入TX Ring</text>

  <!-- Node 4: TX Ring -->
  <rect x="660" y="132" width="140" height="56" rx="5" fill="#2c3e50" stroke="#8e44ad"/>
  <text x="730" y="151" text-anchor="middle" font-size="11" fill="white" font-weight="bold">④ TX Ring Buffer</text>
  <text x="730" y="165" text-anchor="middle" font-size="9" fill="#d7bde2">NIC ↔ 驱动共享</text>
  <text x="730" y="179" text-anchor="middle" font-size="9" fill="#d7bde2">desc[n].addr=skb_phys</text>

  <!-- arrow 4: TX Ring -> NIC (DMA) -->
  <line x1="802" y1="160" x2="848" y2="160" stroke="#2980b9" stroke-width="2.5" marker-end="url(#arr-b)"/>
  <text x="825" y="152" text-anchor="middle" font-size="9" fill="#2980b9" font-weight="bold">DMA拷贝③</text>
  <text x="825" y="173" text-anchor="middle" font-size="8" fill="#95a5a6">NIC引擎读</text>
  <text x="825" y="183" text-anchor="middle" font-size="8" fill="#95a5a6">sk_buff数据</text>

  <!-- Node 5: NIC -->
  <rect x="850" y="132" width="130" height="56" rx="5" fill="#117a65"/>
  <text x="915" y="151" text-anchor="middle" font-size="11" fill="white" font-weight="bold">⑤ 网卡 NIC</text>
  <text x="915" y="165" text-anchor="middle" font-size="9" fill="#a9dfbf">串行化为</text>
  <text x="915" y="179" text-anchor="middle" font-size="9" fill="#a9dfbf">电信号发出</text>

  <!-- bottom annotation for case A -->
  <rect x="30" y="200" width="980" height="82" rx="4" fill="#2c2c2c"/>
  <text x="40" y="217" font-size="10" fill="#e74c3c" font-weight="bold">CPU拷贝① </text>
  <text x="114" y="217" font-size="10" fill="#ecf0f1">JVM Heap byte[]  →  堆外临时buf          ｜ 原因：GC随时移动堆内对象，必须先"钉住"到GC不可移动的区域</text>
  <text x="40" y="233" font-size="10" fill="#e74c3c" font-weight="bold">CPU拷贝② </text>
  <text x="114" y="233" font-size="10" fill="#ecf0f1">堆外临时buf  →  内核sk_buff              ｜ 原因：跨越用户态/内核态边界，copy_from_user()，必须发生</text>
  <text x="40" y="249" font-size="10" fill="#2980b9" font-weight="bold">DMA拷贝③ </text>
  <text x="114" y="249" font-size="10" fill="#ecf0f1">内核sk_buff  →  NIC TX FIFO             ｜ 原因：网卡读走数据发到物理介质，DMA引擎完成，CPU不参与</text>
  <text x="40" y="265" font-size="10" fill="#8e44ad" font-weight="bold">描述符传递  </text>
  <text x="114" y="265" font-size="10" fill="#ecf0f1">sk_buff物理地址写入TX Ring desc            ｜ 不是数据移动，仅传递"去哪里读"的指针，近似零开销</text>
  <text x="40" y="281" font-size="10" fill="#f39c12" font-weight="bold">合计：CPU拷贝2次 + DMA拷贝1次</text>

  <!-- ======================================================
       CASE 2: DirectByteBuffer → Socket
       ====================================================== -->
  <rect x="20" y="302" width="1020" height="168" rx="6" fill="#1e1e3a" stroke="#27ae60" stroke-width="1.5"/>
  <text x="30" y="319" font-size="13" font-weight="bold" fill="#27ae60">场景 B：DirectByteBuffer → channel.write()  【较好，2次拷贝】</text>

  <!-- Node 1: DirectBuffer -->
  <rect x="30" y="328" width="200" height="56" rx="5" fill="#1d6a37"/>
  <text x="130" y="347" text-anchor="middle" font-size="11" fill="white" font-weight="bold">① DirectByteBuffer</text>
  <text x="130" y="361" text-anchor="middle" font-size="9" fill="#a9dfbf">堆外 mmap 匿名区</text>
  <text x="130" y="375" text-anchor="middle" font-size="9" fill="#a9dfbf">GC不移动，地址固定</text>

  <!-- 省掉第一次拷贝 -->
  <rect x="238" y="335" width="100" height="42" rx="4" fill="#145a32" stroke="#27ae60" stroke-dasharray="3,2"/>
  <text x="288" y="350" text-anchor="middle" font-size="9" fill="#27ae60">✓ 无需</text>
  <text x="288" y="363" text-anchor="middle" font-size="9" fill="#27ae60">预拷贝</text>
  <text x="288" y="374" text-anchor="middle" font-size="8" fill="#7f8c8d">CPU拷贝①省略</text>

  <!-- arrow: Direct -> kernel sk_buff -->
  <line x1="342" y1="356" x2="448" y2="356" stroke="#e74c3c" stroke-width="2.5" marker-end="url(#arr-r)"/>
  <text x="395" y="348" text-anchor="middle" font-size="9" fill="#e74c3c" font-weight="bold">CPU拷贝①</text>
  <text x="395" y="369" text-anchor="middle" font-size="8" fill="#95a5a6">copy_from</text>
  <text x="395" y="379" text-anchor="middle" font-size="8" fill="#95a5a6">_user()</text>

  <!-- syscall boundary -->
  <line x1="445" y1="302" x2="445" y2="470" stroke="#7f8c8d" stroke-width="1" stroke-dasharray="4,3"/>

  <!-- Node 3: sk_buff -->
  <rect x="450" y="328" width="160" height="56" rx="5" fill="#1a5276"/>
  <text x="530" y="347" text-anchor="middle" font-size="11" fill="white" font-weight="bold">② 内核 sk_buff</text>
  <text x="530" y="361" text-anchor="middle" font-size="9" fill="#aed6f1">TCP/IP 封装</text>
  <text x="530" y="375" text-anchor="middle" font-size="9" fill="#aed6f1">各层加协议头</text>

  <!-- desc -->
  <line x1="612" y1="356" x2="658" y2="356" stroke="#8e44ad" stroke-width="2" marker-end="url(#arr-p)"/>
  <text x="635" y="348" text-anchor="middle" font-size="9" fill="#8e44ad" font-weight="bold">描述符</text>
  <text x="635" y="370" text-anchor="middle" font-size="8" fill="#95a5a6">写入TX Ring</text>

  <!-- TX Ring -->
  <rect x="660" y="328" width="140" height="56" rx="5" fill="#2c3e50" stroke="#8e44ad"/>
  <text x="730" y="347" text-anchor="middle" font-size="11" fill="white" font-weight="bold">③ TX Ring Buffer</text>
  <text x="730" y="361" text-anchor="middle" font-size="9" fill="#d7bde2">desc[n].addr</text>
  <text x="730" y="375" text-anchor="middle" font-size="9" fill="#d7bde2">=skb_phys</text>

  <!-- DMA -->
  <line x1="802" y1="356" x2="848" y2="356" stroke="#2980b9" stroke-width="2.5" marker-end="url(#arr-b)"/>
  <text x="825" y="348" text-anchor="middle" font-size="9" fill="#2980b9" font-weight="bold">DMA拷贝②</text>
  <text x="825" y="370" text-anchor="middle" font-size="8" fill="#95a5a6">NIC DMA</text>

  <!-- NIC -->
  <rect x="850" y="328" width="130" height="56" rx="5" fill="#117a65"/>
  <text x="915" y="347" text-anchor="middle" font-size="11" fill="white" font-weight="bold">④ 网卡 NIC</text>
  <text x="915" y="361" text-anchor="middle" font-size="9" fill="#a9dfbf">发出到网络</text>

  <!-- annotation -->
  <rect x="30" y="396" width="980" height="64" rx="4" fill="#2c2c2c"/>
  <text x="40" y="413" font-size="10" fill="#27ae60" font-weight="bold">CPU拷贝①省略</text>
  <text x="130" y="413" font-size="10" fill="#ecf0f1">Direct buf 地址固定，可直接传给内核，跳过"搬出GC危险区"步骤</text>
  <text x="40" y="429" font-size="10" fill="#e74c3c" font-weight="bold">CPU拷贝①</text>
  <text x="114" y="429" font-size="10" fill="#ecf0f1">DirectBuf  →  内核sk_buff   ｜ copy_from_user()，跨用户/内核边界，仍然必须发生</text>
  <text x="40" y="445" font-size="10" fill="#2980b9" font-weight="bold">DMA拷贝② </text>
  <text x="114" y="445" font-size="10" fill="#ecf0f1">内核sk_buff  →  NIC TX FIFO ｜ DMA引擎完成，CPU不参与</text>
  <text x="40" y="457" font-size="10" fill="#f39c12" font-weight="bold">合计：CPU拷贝1次 + DMA拷贝1次</text>

  <!-- ======================================================
       CASE 3: FileChannel.transferTo (sendfile)
       ====================================================== -->
  <rect x="20" y="480" width="1020" height="168" rx="6" fill="#1e1e3a" stroke="#8e44ad" stroke-width="1.5"/>
  <text x="30" y="497" font-size="13" font-weight="bold" fill="#8e44ad">场景 C：FileChannel.transferTo()（sendfile）  【最优，CPU拷贝0次】</text>

  <!-- Node: Page Cache -->
  <rect x="30" y="506" width="180" height="56" rx="5" fill="#4a235a"/>
  <text x="120" y="525" text-anchor="middle" font-size="11" fill="white" font-weight="bold">① Page Cache</text>
  <text x="120" y="539" text-anchor="middle" font-size="9" fill="#d7bde2">文件数据已缓存</text>
  <text x="120" y="553" text-anchor="middle" font-size="9" fill="#d7bde2">内核管理的物理页</text>

  <!-- 没有用户态参与 -->
  <rect x="218" y="513" width="120" height="42" rx="4" fill="#2c2c4a" stroke="#8e44ad" stroke-dasharray="3,2"/>
  <text x="278" y="528" text-anchor="middle" font-size="9" fill="#8e44ad">用户态</text>
  <text x="278" y="541" text-anchor="middle" font-size="9" fill="#8e44ad">完全不参与</text>
  <text x="278" y="553" text-anchor="middle" font-size="8" fill="#7f8c8d">sendfile内核完成</text>

  <!-- syscall boundary -->
  <line x1="445" y1="480" x2="445" y2="648" stroke="#7f8c8d" stroke-width="1" stroke-dasharray="4,3"/>

  <!-- arrow: Page Cache -> sk_buff (内核内部) -->
  <!-- 两种情况 -->
  <!-- Case C1: 无SG-DMA (1次CPU拷贝) -->
  <line x1="342" y1="526" x2="448" y2="526" stroke="#e74c3c" stroke-width="1.5" marker-end="url(#arr-r)" stroke-dasharray="6,3"/>
  <text x="395" y="518" text-anchor="middle" font-size="8" fill="#e74c3c">CPU拷贝</text>
  <text x="395" y="529" text-anchor="middle" font-size="8" fill="#95a5a6">（无SG-DMA时）</text>

  <!-- Case C2: 有SG-DMA (0次CPU拷贝) -->
  <line x1="342" y1="546" x2="448" y2="546" stroke="#8e44ad" stroke-width="2" marker-end="url(#arr-p)"/>
  <text x="395" y="558" text-anchor="middle" font-size="8" fill="#8e44ad">描述符引用</text>
  <text x="395" y="568" text-anchor="middle" font-size="8" fill="#8e44ad">（有SG-DMA时）</text>

  <!-- Node: sk_buff -->
  <rect x="450" y="506" width="160" height="56" rx="5" fill="#1a5276"/>
  <text x="530" y="525" text-anchor="middle" font-size="11" fill="white" font-weight="bold">② 内核 sk_buff</text>
  <text x="530" y="539" text-anchor="middle" font-size="9" fill="#aed6f1">有SG-DMA：只存</text>
  <text x="530" y="553" text-anchor="middle" font-size="9" fill="#aed6f1">PageCache页的引用</text>

  <!-- desc -->
  <line x1="612" y1="534" x2="658" y2="534" stroke="#8e44ad" stroke-width="2" marker-end="url(#arr-p)"/>
  <text x="635" y="526" text-anchor="middle" font-size="9" fill="#8e44ad" font-weight="bold">描述符</text>
  <text x="635" y="548" text-anchor="middle" font-size="8" fill="#95a5a6">写入TX Ring</text>

  <!-- TX Ring -->
  <rect x="660" y="506" width="140" height="56" rx="5" fill="#2c3e50" stroke="#8e44ad"/>
  <text x="730" y="525" text-anchor="middle" font-size="11" fill="white" font-weight="bold">③ TX Ring Buffer</text>
  <text x="730" y="539" text-anchor="middle" font-size="9" fill="#d7bde2">desc直接指向</text>
  <text x="730" y="553" text-anchor="middle" font-size="9" fill="#d7bde2">PageCache物理页</text>

  <!-- DMA -->
  <line x1="802" y1="534" x2="848" y2="534" stroke="#2980b9" stroke-width="2.5" marker-end="url(#arr-b)"/>
  <text x="825" y="526" text-anchor="middle" font-size="9" fill="#2980b9" font-weight="bold">DMA拷贝①</text>
  <text x="825" y="548" text-anchor="middle" font-size="8" fill="#95a5a6">NIC DMA直接</text>
  <text x="825" y="558" text-anchor="middle" font-size="8" fill="#95a5a6">读PageCache</text>

  <!-- NIC -->
  <rect x="850" y="506" width="130" height="56" rx="5" fill="#117a65"/>
  <text x="915" y="525" text-anchor="middle" font-size="11" fill="white" font-weight="bold">④ 网卡 NIC</text>
  <text x="915" y="539" text-anchor="middle" font-size="9" fill="#a9dfbf">发出到网络</text>

  <!-- annotation -->
  <rect x="30" y="574" width="980" height="64" rx="4" fill="#2c2c2c"/>
  <text x="40" y="591" font-size="10" fill="#95a5a6">无SG-DMA网卡：</text>
  <text x="140" y="591" font-size="10" fill="#ecf0f1">PageCache → sk_buff（内核内1次CPU拷贝） + sk_buff → NIC（1次DMA）  合计：CPU拷贝1次 + DMA拷贝1次</text>
  <text x="40" y="607" font-size="10" fill="#8e44ad" font-weight="bold">有SG-DMA网卡：</text>
  <text x="140" y="607" font-size="10" fill="#ecf0f1">sk_buff只存PageCache页引用，NIC DMA引擎 scatter-gather 直接读PageCache物理页发出</text>
  <text x="40" y="623" font-size="10" fill="#f39c12" font-weight="bold">合计（SG-DMA）：CPU拷贝0次 + DMA拷贝1次  ← 真·零拷贝</text>
  <text x="40" y="635" font-size="10" fill="#7f8c8d">用户态全程不参与，sendfile() 一个 syscall 搞定整个文件→网络的传输</text>

  <!-- ======================================================
       汇总表
       ====================================================== -->
  <rect x="20" y="658" width="1020" height="306" rx="6" fill="#1e1e3a" stroke="#f39c12" stroke-width="1.5"/>
  <text x="530" y="676" text-anchor="middle" font-size="14" font-weight="bold" fill="#f39c12">所有情况汇总对比</text>

  <!-- table header -->
  <rect x="30" y="684" width="1000" height="24" rx="3" fill="#2c3e50"/>
  <text x="130" y="700" text-anchor="middle" font-size="10" fill="#bdc3c7" font-weight="bold">场景</text>
  <text x="380" y="700" text-anchor="middle" font-size="10" fill="#bdc3c7" font-weight="bold">CPU拷贝次数</text>
  <text x="540" y="700" text-anchor="middle" font-size="10" fill="#bdc3c7" font-weight="bold">DMA拷贝次数</text>
  <text x="700" y="700" text-anchor="middle" font-size="10" fill="#bdc3c7" font-weight="bold">总内存移动</text>
  <text x="890" y="700" text-anchor="middle" font-size="10" fill="#bdc3c7" font-weight="bold">说明</text>

  <!-- rows -->
  <g font-size="10">
    <!-- row 1 -->
    <rect x="30" y="708" width="1000" height="24" rx="2" fill="#2c2c2c"/>
    <text x="130" y="724" text-anchor="middle" fill="#e67e22">HeapBuf → Socket</text>
    <rect x="330" y="710" width="100" height="20" rx="2" fill="#922b21"/>
    <text x="380" y="724" text-anchor="middle" fill="white" font-weight="bold">2次 CPU</text>
    <rect x="490" y="710" width="100" height="20" rx="2" fill="#1a5276"/>
    <text x="540" y="724" text-anchor="middle" fill="white" font-weight="bold">1次 DMA</text>
    <text x="700" y="724" text-anchor="middle" fill="#ecf0f1">3次移动</text>
    <text x="890" y="724" text-anchor="middle" fill="#95a5a6">堆→堆外→sk_buff→NIC</text>

    <!-- row 2 -->
    <rect x="30" y="732" width="1000" height="24" rx="2" fill="#252525"/>
    <text x="130" y="748" text-anchor="middle" fill="#27ae60">DirectBuf → Socket</text>
    <rect x="330" y="734" width="100" height="20" rx="2" fill="#1e8449"/>
    <text x="380" y="748" text-anchor="middle" fill="white" font-weight="bold">1次 CPU</text>
    <rect x="490" y="734" width="100" height="20" rx="2" fill="#1a5276"/>
    <text x="540" y="748" text-anchor="middle" fill="white" font-weight="bold">1次 DMA</text>
    <text x="700" y="748" text-anchor="middle" fill="#ecf0f1">2次移动</text>
    <text x="890" y="748" text-anchor="middle" fill="#95a5a6">堆外→sk_buff→NIC</text>

    <!-- row 3 -->
    <rect x="30" y="756" width="1000" height="24" rx="2" fill="#2c2c2c"/>
    <text x="130" y="772" text-anchor="middle" fill="#8e44ad">sendfile（无SG-DMA）</text>
    <rect x="330" y="758" width="100" height="20" rx="2" fill="#1e8449"/>
    <text x="380" y="772" text-anchor="middle" fill="white" font-weight="bold">1次 CPU</text>
    <rect x="490" y="758" width="100" height="20" rx="2" fill="#1a5276"/>
    <text x="540" y="772" text-anchor="middle" fill="white" font-weight="bold">1次 DMA</text>
    <text x="700" y="772" text-anchor="middle" fill="#ecf0f1">2次移动</text>
    <text x="890" y="772" text-anchor="middle" fill="#95a5a6">PageCache→sk_buff→NIC（内核内）</text>

    <!-- row 4 highlight -->
    <rect x="30" y="780" width="1000" height="24" rx="2" fill="#1a2744"/>
    <text x="130" y="796" text-anchor="middle" fill="#3498db" font-weight="bold">sendfile（有SG-DMA）</text>
    <rect x="330" y="782" width="100" height="20" rx="2" fill="#117a65"/>
    <text x="380" y="796" text-anchor="middle" fill="white" font-weight="bold">0次 ★</text>
    <rect x="490" y="782" width="100" height="20" rx="2" fill="#1a5276"/>
    <text x="540" y="796" text-anchor="middle" fill="white" font-weight="bold">1次 DMA</text>
    <text x="700" y="796" text-anchor="middle" fill="#3498db" font-weight="bold">1次移动 ★</text>
    <text x="890" y="796" text-anchor="middle" fill="#3498db">PageCache直接→NIC，真零拷贝</text>

    <!-- row 5 -->
    <rect x="30" y="804" width="1000" height="24" rx="2" fill="#2c2c2c"/>
    <text x="130" y="820" text-anchor="middle" fill="#e67e22">HeapBuf → File write</text>
    <rect x="330" y="806" width="100" height="20" rx="2" fill="#922b21"/>
    <text x="380" y="820" text-anchor="middle" fill="white" font-weight="bold">2次 CPU</text>
    <rect x="490" y="806" width="100" height="20" rx="2" fill="#1a5276"/>
    <text x="540" y="820" text-anchor="middle" fill="white" font-weight="bold">1次 DMA</text>
    <text x="700" y="820" text-anchor="middle" fill="#ecf0f1">3次移动</text>
    <text x="890" y="820" text-anchor="middle" fill="#95a5a6">堆→堆外→PageCache→磁盘</text>

    <!-- row 6 -->
    <rect x="30" y="828" width="1000" height="24" rx="2" fill="#252525"/>
    <text x="130" y="844" text-anchor="middle" fill="#27ae60">DirectBuf → File write</text>
    <rect x="330" y="830" width="100" height="20" rx="2" fill="#1e8449"/>
    <text x="380" y="844" text-anchor="middle" fill="white" font-weight="bold">1次 CPU</text>
    <rect x="490" y="830" width="100" height="20" rx="2" fill="#1a5276"/>
    <text x="540" y="844" text-anchor="middle" fill="white" font-weight="bold">1次 DMA</text>
    <text x="700" y="844" text-anchor="middle" fill="#ecf0f1">2次移动</text>
    <text x="890" y="844" text-anchor="middle" fill="#95a5a6">堆外→PageCache→磁盘</text>

    <!-- row 7 -->
    <rect x="30" y="852" width="1000" height="24" rx="2" fill="#2c2c2c"/>
    <text x="130" y="868" text-anchor="middle" fill="#e67e22">File read → HeapBuf</text>
    <rect x="330" y="854" width="100" height="20" rx="2" fill="#922b21"/>
    <text x="380" y="868" text-anchor="middle" fill="white" font-weight="bold">2次 CPU</text>
    <rect x="490" y="854" width="100" height="20" rx="2" fill="#1a5276"/>
    <text x="540" y="868" text-anchor="middle" fill="white" font-weight="bold">1次 DMA</text>
    <text x="700" y="868" text-anchor="middle" fill="#ecf0f1">3次移动</text>
    <text x="890" y="868" text-anchor="middle" fill="#95a5a6">磁盘→PageCache→堆外→堆</text>

    <!-- row 8 -->
    <rect x="30" y="876" width="1000" height="24" rx="2" fill="#252525"/>
    <text x="130" y="892" text-anchor="middle" fill="#27ae60">File read → DirectBuf</text>
    <rect x="330" y="878" width="100" height="20" rx="2" fill="#1e8449"/>
    <text x="380" y="892" text-anchor="middle" fill="white" font-weight="bold">1次 CPU</text>
    <rect x="490" y="878" width="100" height="20" rx="2" fill="#1a5276"/>
    <text x="540" y="892" text-anchor="middle" fill="white" font-weight="bold">1次 DMA</text>
    <text x="700" y="892" text-anchor="middle" fill="#ecf0f1">2次移动</text>
    <text x="890" y="892" text-anchor="middle" fill="#95a5a6">磁盘→PageCache→堆外</text>
  </g>

  <!-- notes -->
  <rect x="30" y="908" width="1000" height="44" rx="4" fill="#2c2c2c"/>
  <text x="40" y="922" font-size="10" fill="#f39c12" font-weight="bold">注意事项：</text>
  <text x="40" y="936" font-size="10" fill="#bdc3c7">① DMA拷贝不占CPU，但占内存总线带宽，大流量时仍是性能瓶颈</text>
  <text x="40" y="948" font-size="10" fill="#bdc3c7">② "描述符传递"（sk_buff物理地址写入TX Ring desc）不算数据移动，只传指针，几乎零开销</text>
  <text x="550" y="936" font-size="10" fill="#bdc3c7">③ PageCache→磁盘的DMA写入是异步的（脏页回写），write()返回时数据还在内存</text>
  <text x="550" y="948" font-size="10" fill="#bdc3c7">④ Netty推荐：业务层直接用DirectBuf，减少1次CPU拷贝；文件服务用FileRegion（sendfile）</text>
</svg>
